<svg xmlns="http://www.w3.org/2000/svg" viewBox="0 0 2022.46 2022.49"><defs><style>.cls-1{fill:#0060af;}</style></defs><g id="Layer_2" data-name="Layer 2"><g id="Layer_1-2" data-name="Layer 1"><path class="cls-1" d="M1611.23,1260.67a44.3,44.3,0,0,1-44,39.09h-249.6l-1.26,722.73h306.11c220.25,0,398.91-178,400-398V398c-1.06-220-179.73-398-400-398H400C179.73,0,1.06,178,0,398V1624.46c1.05,218.71,177.63,395.92,396.1,398h605.07l1.26-722.7H814.65a44.28,44.28,0,0,1-44.28-44.14l-.92-233a44.32,44.32,0,0,1,44.31-44.48H1001.2V753.07c0-261.22,159.54-403.46,392.56-403.46H1585a44.32,44.32,0,0,1,44.31,44.31V590.34A44.3,44.3,0,0,1,1585,634.65l-117.36.07c-126.73,0-151.28,60.2-151.28,148.6V978.19h278.47a44.28,44.28,0,0,1,44,49.5Z"/></g></g></svg>