<svg xmlns="http://www.w3.org/2000/svg" viewBox="0 0 2022.49 2022.49"><defs><style>.cls-1{fill:#0060af;}</style></defs><g id="Layer_2" data-name="Layer 2"><g id="Layer_1-2" data-name="Layer 1"><path class="cls-1" d="M1333.9,409H688.7c-158.4,0-286.17,128.83-286.17,286.17v645.2c0,158.4,128.83,286.17,286.17,286.17h645.2c158.4,0,286.17-128.83,286.17-286.17h0V695.16C1620.07,536.76,1491.24,409,1333.9,409Zm-322.07,994.73c-213.31,0-386.49-173.18-386.49-386.49s173.18-386.48,386.49-386.48,386.49,173.18,386.49,386.48S1225.13,1403.72,1011.83,1403.72Zm399.16-698A89.76,89.76,0,1,1,1500.75,616,89.76,89.76,0,0,1,1411,705.72Z"/><path class="cls-1" d="M1011.83,765.91c-139.39,0-251.33,113-251.33,251.32,0,139.39,113,251.33,251.33,251.33s250.26-113,251.32-251.33C1263.15,877.84,1150.16,765.91,1011.83,765.91Z"/><path class="cls-1" d="M1622.49,0H400C179.09,0,0,179.09,0,400V1622.49c0,220.91,179.09,400,400,400H1622.49c220.91,0,400-179.09,400-400V400C2022.49,179.09,1843.4,0,1622.49,0Zm134.86,1329.8c0,237.6-193.25,430.84-430.84,430.84H696.09c-237.6,0-430.84-193.24-430.84-430.84V699.38c0-237.59,193.24-430.84,430.84-430.84h630.42c237.59,0,430.84,192.19,430.84,430.84Z"/></g></g></svg>