<svg xmlns="http://www.w3.org/2000/svg" viewBox="0 0 2023.06 2023.06"><defs><style>.cls-1{fill:#0060af;}</style></defs><g id="Layer_2" data-name="Layer 2"><g id="Layer_1-2" data-name="Layer 1"><path class="cls-1" d="M1643.74,0H379.32C169.81,0,0,169.81,0,379.32V1643.74c0,209.51,169.81,379.32,379.32,379.32H1643.74c209.51,0,379.32-169.81,379.32-379.32V379.32C2023.06,169.81,1853.25,0,1643.74,0ZM1633,1238c-6.83,84.21-70.81,191.68-160.2,207.23-286.39,22.26-625.76,19.48-922.39,0C457.85,1433.59,397,1322.07,390.2,1238c-14.41-176.77-14.41-277.42,0-454.18,6.83-84.08,69.17-195,160.2-205.09,293.22-24.66,634.49-19.35,922.39,0,102.92,3.79,153.37,109.88,160.2,194.09C1647.15,949.57,1647.15,1061.22,1633,1238Z"/><polygon class="cls-1" points="885.09 1264.41 1264.41 1011.53 885.09 758.65 885.09 1264.41"/></g></g></svg>