<svg xmlns="http://www.w3.org/2000/svg" viewBox="0 0 2125.7 2022.49"><defs><style>.cls-1{fill:#fdfefe;}.cls-2{fill:#0060af;}.cls-3{fill:none;}</style></defs><g id="Layer_2" data-name="Layer 2"><g id="Layer_1-2" data-name="Layer 1"><path class="cls-1" d="M380.6,1764.29c-8.3-3.7-14.4-7.9-4.6-16.2,6-4.6,12.5-8.8,19-13,60.7-39.4,117.7-82.5,155.3-146,31.5-52.8,26.4-83.9-13-122.8-219.8-219.8-316.2-482.6-268-793.1,27.3-175.2,107.5-326.8,224.3-458.4,70.5-79.7,154.3-144.2,246.1-197.9,5.6-3.2,13.4-4.2,14.4-12.5-1.9-4.6-5.1-3.2-7.9-3.2-156.2,0-312.4-3.2-468.1.9C128.8,6.69,0,122.09.5,287.59c.9,483.4,0,966.9,0,1450.8,0,150.2,114.5,275.8,264.2,281.4,126.5,5.1,253.1.9,380.1.5,9.3.5,18.5.9,27.8.9h669.3c166.9,0,333.7.9,500.6,0,154.8,0,280.4-125.1,280.4-279.5v-274c0-6.5,2.3-13.4-1.9-20.4-8.3.5-11.6,7.4-16.2,12.1A1025.57,1025.57,0,0,1,1792.4,1674c-285.1,125.6-575.2,134.4-869.5,33.4-25.5-9.3-53.3-10.2-79.7-3.7-38.9,9.7-77.4,21.3-115.9,32.9-113.1,35.1-228.6,50.8-346.7,27.7Zm336-781.1c7.9-10.2,12.1-16.2,16.7-22.2q91.05-115.35,182.2-231.3c17.6-22.2,35.2-45,46.4-71.8,13-30.6-.9-59.3-32.4-70.5a124.93,124.93,0,0,0-43.6-5.1c-82.5-.5-165.5-.5-248,0a140.69,140.69,0,0,0-34.3,4.2c-26,6.5-41.7,32.9-35.2,59.3a49.49,49.49,0,0,0,36.2,35.7,119.6,119.6,0,0,0,34.3,3.7c50.1.5,100.6,0,150.6.5,5.6,0,12.5-3.7,16.7,4.6-4.2,5.6-8.3,11.1-12.5,16.2-71.8,90.8-143.2,182.2-215.1,273-17.6,22.7-26.9,47.7-13.9,75.6s39.4,32.9,66.3,34.8c21.3,1.4,43.1.5,64.9.5,75.1,0,149.7.5,224.8-.5,39.9-.5,61.2-24.6,57-61.6-3.2-29.2-23.2-44.5-60.3-45-65.5-.5-130.8-.1-200.8-.1Zm537.7-243.8c-57.9-50.5-121.9-53.8-184.5-16.7-76,44.5-103.8,117.3-94.6,201.6,8.8,78.8,43.1,143.2,125.6,169.6,51.4,16.7,99.2,10.7,141.4-23.6,11.1-8.8,14.4-7,22.2,2.8a57,57,0,0,0,64.9,18.1c23.2-7,38.5-28.3,38.5-52.4.5-92.7.9-185.4,0-278.1-.5-37.1-35.2-60.7-71.4-53.3-19.9,4.2-31,17.7-42.1,32Zm321.2,172c-1.9,115.9,94.1,203.5,214.6,191.4,110.8-11.1,182.6-94.1,178.9-211.4-3.7-115.9-89.9-195.1-208.1-191.4C1650.1,703.29,1571.8,792.29,1575.5,911.39Zm-40.8-92.2c0-72.8.5-145.1,0-217.9,0-37.1-23.6-60.3-58.9-59.8-34.3.5-57,23.6-57.5,59.3-.5,21.8,0,43.1,0,64.9v368.5c0,28.7,17.6,53.8,40.8,59.8a59.28,59.28,0,0,0,73.2-42.2,54.17,54.17,0,0,0,1.9-17.1c1-71.9.5-143.7.5-215.5Z"/><path class="cls-2" d="M644.3,2020.59c-126.5,0-253.5,4.2-380.1-.5-149.7-6-264.2-131.6-264.2-281.4,0-483.4.9-966.9,0-1450.8C0,122.39,129.3,7,278.1,2.79c155.7-4.2,311.9-.9,468.1-.9,2.8,0,6.5-1.4,7.9,3.2-.9,8.3-9.3,9.3-14.4,12.5-91.7,53.9-175.6,118.3-246.1,198.1-116.3,131.6-197,282.7-224.3,458.4-48.2,310.1,48.7,573.4,267.9,793.1,38.9,39.4,44,70,13,122.8-37.5,63.5-94.6,106.6-155.3,146-6.5,3.7-13,8.3-19.5,12.5-9.7,8.3-3.7,12.5,4.6,16.2a59.66,59.66,0,0,0,7,11.6c53.3,47.3,103.8,97.8,156.2,146,24.6,22.7,49.1,46.4,72.8,70C625.7,2001.09,642,2003.89,644.3,2020.59Z"/><path class="cls-2" d="M644.3,2020.59c-2.3-16.2-18.5-19-28.3-28.7-23.6-24.1-48.2-47.3-72.8-70-52.4-48.2-102.9-98.7-156.2-146a59.66,59.66,0,0,1-7-11.6c118.2,23.2,233.6,7.4,347.2-27.3,38.5-11.6,76.9-23.2,115.9-32.9a133,133,0,0,1,79.7,3.7c293.9,101,584,91.8,869.5-33.4a1025.81,1025.81,0,0,0,312.4-214.1c4.6-4.6,7.9-11.6,16.2-12.1,4.2,6.5,1.9,13.4,1.9,20.4v271.2c.9,154.8-123.3,280.9-278.1,282.3h-2.3c-166.9.9-333.7,0-500.6,0H672.1a235.42,235.42,0,0,0-27.8-1.5Z"/><path class="cls-2" d="M716.6,983.19c70,0,135.8-.5,201.2,0,36.6.5,56.5,15.8,60.3,45,4.2,36.6-17.1,61.2-57,61.6-75.1.9-149.7.5-224.8.5-21.8,0-43.1.9-64.9-.5-26.9-1.4-53.3-7-66.3-34.8s-3.7-52.8,13.9-75.6c71.4-90.8,143.2-182.2,215.1-273,4.2-5.6,8.3-11.1,12.5-16.2-4.6-7.9-11.1-4.2-16.7-4.6-50.1-.5-100.6,0-150.6-.5a170,170,0,0,1-34.3-3.7A48.72,48.72,0,0,1,568.4,623c4.2-17.6,18.1-32,35.7-36.2a140.69,140.69,0,0,1,34.3-4.2c82.5-.5,165.5-.5,248,0a153.07,153.07,0,0,1,43.6,5.1c31.5,10.7,45,39.9,32.4,70.5-11.1,26.4-28.7,49.1-46.4,71.8Q825,846.09,733.8,960.79c-5.2,6.2-9.8,12.2-17.2,22.4Z"/><path class="cls-2" d="M1254.3,739.39c11.1-14.4,22.7-27.8,41.7-31.5,36.6-7.4,70.9,16.2,71.4,53.3,1.4,92.7.9,185.4,0,278.1a54.92,54.92,0,0,1-38.5,52.4c-23.2,8.8-49.6,1.9-64.9-18.1-7.9-9.7-11.1-11.6-22.2-2.8-42.2,34.3-89.9,40.3-141.4,23.6-82.5-26.9-116.3-91.3-125.6-169.6-9.7-84.8,18.5-157.1,94.6-201.6,63-37.5,126.9-34.3,184.9,16.2Zm-164.1,169.2c.9,20.4,7.4,39.9,19.5,56.1,25,33.4,72.8,40.3,106.6,15.3a79.16,79.16,0,0,0,15.3-15.3c26-35.2,26-93.2,0-128.4a69.76,69.76,0,0,0-55.2-29.2C1125.4,803.89,1089.7,843.29,1090.2,908.59Zm485.3,2.8c-3.7-119.1,74.6-208.1,185.9-211.4,118.2-3.7,204.4,75.6,208.1,191.4,3.7,117.3-68.1,200.2-178.9,211.4-121,12.1-217-75.5-215.1-191.4Zm116.3-11.1a102.75,102.75,0,0,0,19.9,64.9,75.52,75.52,0,0,0,106.6,13.9c5.1-3.7,9.3-8.3,13.4-13,26.9-35.2,26.9-94.6.5-129.8-13-17.6-33.4-28.7-55.2-29.2C1727.1,804.29,1691.8,842.29,1691.8,900.29Zm-157.1-81.1c0,71.8.5,143.7,0,215.5a60.24,60.24,0,0,1-58.4,61.2,72,72,0,0,1-17.2-1.9c-23.2-6-40.8-30.6-40.8-59.8V665.69c0-21.8-.5-43.1,0-64.9.5-35.7,23.2-58.9,57.5-58.9,35.2-.5,58.9,22.7,58.9,59.8C1535.2,674.09,1534.7,746.89,1534.7,819.19Z"/><path class="cls-1" d="M1090.2,908.59c-.5-65.4,35.2-104.8,85.7-102a71.42,71.42,0,0,1,55.2,29.7c26,34.8,26,93.2,0,128.4-25,33.4-72.8,40.3-106.6,15.3a79.16,79.16,0,0,1-15.3-15.3,104,104,0,0,1-19-56.1Zm601.6-8.3c0-57.5,35.2-95.9,85.3-93.2,21.8.5,42.2,11.6,55.2,29.2,26.4,35.2,26.4,95-.5,129.8a76.47,76.47,0,0,1-107.1,12.5,59.06,59.06,0,0,1-13-13.4C1697.9,946.19,1691.4,923.49,1691.8,900.29Z"/><path class="cls-3" d="M303.6,3.39H1824.4c166.4,0,301.3,134.9,301.3,301.3v1404.4c0,166.4-134.9,301.3-301.3,301.3H303.6c-166.4,0-301.3-134.9-301.3-301.3V304.69C2.3,138.29,137.2,3.39,303.6,3.39Z"/></g></g></svg>